<mxfile host="app.diagrams.net" agent="Mozilla/5.0 (Windows NT 10.0; Win64; x64) AppleWebKit/537.36 (KHTML, like Gecko) Chrome/132.0.0.0 Safari/537.36" version="26.0.6" pages="2">
  <diagram name="总体" id="ZcTcGLZbmF6GL_6o9DRF">
    <mxGraphModel dx="1434" dy="738" grid="1" gridSize="10" guides="1" tooltips="1" connect="1" arrows="1" fold="1" page="1" pageScale="1" pageWidth="827" pageHeight="1169" math="0" shadow="0">
      <root>
        <mxCell id="0" />
        <mxCell id="1" parent="0" />
        <mxCell id="nIJ783GiHYPhEkQYu61_-16" value="" style="rounded=0;whiteSpace=wrap;html=1;" vertex="1" parent="1">
          <mxGeometry x="440" y="150" width="170" height="210" as="geometry" />
        </mxCell>
        <mxCell id="nIJ783GiHYPhEkQYu61_-7" value="" style="rounded=0;whiteSpace=wrap;html=1;" vertex="1" parent="1">
          <mxGeometry x="260" y="150" width="150" height="210" as="geometry" />
        </mxCell>
        <mxCell id="nIJ783GiHYPhEkQYu61_-1" value="" style="rounded=0;whiteSpace=wrap;html=1;" vertex="1" parent="1">
          <mxGeometry x="60" y="150" width="170" height="210" as="geometry" />
        </mxCell>
        <mxCell id="nIJ783GiHYPhEkQYu61_-2" value="总体态势" style="rounded=0;whiteSpace=wrap;html=1;verticalAlign=middle;" vertex="1" parent="1">
          <mxGeometry x="80" y="190" width="100" height="20" as="geometry" />
        </mxCell>
        <mxCell id="nIJ783GiHYPhEkQYu61_-3" value="路网态势专题" style="rounded=0;whiteSpace=wrap;html=1;verticalAlign=middle;" vertex="1" parent="1">
          <mxGeometry x="80" y="230" width="100" height="20" as="geometry" />
        </mxCell>
        <mxCell id="nIJ783GiHYPhEkQYu61_-5" value="二、交通分析与决策" style="text;whiteSpace=wrap;fontStyle=1" vertex="1" parent="1">
          <mxGeometry x="274" y="150" width="140" height="40" as="geometry" />
        </mxCell>
        <mxCell id="nIJ783GiHYPhEkQYu61_-6" value="&lt;span style=&quot;color: rgb(0, 0, 0); font-family: Helvetica; font-size: 12px; font-style: normal; font-variant-ligatures: normal; font-variant-caps: normal; letter-spacing: normal; orphans: 2; text-align: center; text-indent: 0px; text-transform: none; widows: 2; word-spacing: 0px; -webkit-text-stroke-width: 0px; white-space: normal; background-color: rgb(251, 251, 251); text-decoration-thickness: initial; text-decoration-style: initial; text-decoration-color: initial; float: none; display: inline !important;&quot;&gt;一、交通运行一体化平台&lt;/span&gt;" style="text;whiteSpace=wrap;html=1;fontStyle=1" vertex="1" parent="1">
          <mxGeometry x="75" y="150" width="140" height="40" as="geometry" />
        </mxCell>
        <mxCell id="nIJ783GiHYPhEkQYu61_-8" value="&lt;span style=&quot;text-align: left;&quot;&gt;交通专题监测&lt;/span&gt;" style="rounded=0;whiteSpace=wrap;html=1;verticalAlign=middle;" vertex="1" parent="1">
          <mxGeometry x="80" y="270" width="100" height="20" as="geometry" />
        </mxCell>
        <mxCell id="nIJ783GiHYPhEkQYu61_-9" value="流量规律研判" style="text;whiteSpace=wrap;strokeColor=default;verticalAlign=middle;" vertex="1" parent="1">
          <mxGeometry x="270" y="185" width="100" height="20" as="geometry" />
        </mxCell>
        <mxCell id="nIJ783GiHYPhEkQYu61_-10" value="交通指数分析" style="text;whiteSpace=wrap;strokeColor=default;verticalAlign=middle;" vertex="1" parent="1">
          <mxGeometry x="270" y="219" width="100" height="20" as="geometry" />
        </mxCell>
        <mxCell id="nIJ783GiHYPhEkQYu61_-11" value="拥堵规律研判" style="text;whiteSpace=wrap;strokeColor=default;verticalAlign=middle;" vertex="1" parent="1">
          <mxGeometry x="270" y="253" width="100" height="20" as="geometry" />
        </mxCell>
        <mxCell id="nIJ783GiHYPhEkQYu61_-12" value="城市交通专题分析" style="text;whiteSpace=wrap;strokeColor=default;verticalAlign=middle;" vertex="1" parent="1">
          <mxGeometry x="270" y="286" width="100" height="20" as="geometry" />
        </mxCell>
        <mxCell id="nIJ783GiHYPhEkQYu61_-14" value="综合交通专题报告" style="text;whiteSpace=wrap;strokeColor=default;verticalAlign=middle;" vertex="1" parent="1">
          <mxGeometry x="270" y="320" width="100" height="20" as="geometry" />
        </mxCell>
        <mxCell id="nIJ783GiHYPhEkQYu61_-15" value="三、交通综合治理" style="text;whiteSpace=wrap;fontStyle=1" vertex="1" parent="1">
          <mxGeometry x="470" y="150" width="130" height="40" as="geometry" />
        </mxCell>
        <mxCell id="nIJ783GiHYPhEkQYu61_-17" value="交通治理任务管理" style="text;whiteSpace=wrap;strokeColor=default;verticalAlign=middle;" vertex="1" parent="1">
          <mxGeometry x="449" y="185" width="100" height="20" as="geometry" />
        </mxCell>
        <mxCell id="nIJ783GiHYPhEkQYu61_-18" value="治理过程监测" style="text;whiteSpace=wrap;strokeColor=default;verticalAlign=middle;" vertex="1" parent="1">
          <mxGeometry x="449" y="219" width="100" height="20" as="geometry" />
        </mxCell>
        <mxCell id="nIJ783GiHYPhEkQYu61_-19" value="治理效果评估" style="text;whiteSpace=wrap;strokeColor=default;verticalAlign=middle;" vertex="1" parent="1">
          <mxGeometry x="449" y="253" width="100" height="20" as="geometry" />
        </mxCell>
        <mxCell id="nIJ783GiHYPhEkQYu61_-20" value="交警交通基础设施管理" style="text;whiteSpace=wrap;strokeColor=default;verticalAlign=middle;" vertex="1" parent="1">
          <mxGeometry x="449" y="286" width="140" height="20" as="geometry" />
        </mxCell>
        <mxCell id="nIJ783GiHYPhEkQYu61_-22" value="四、交通运输行业动态监测                &#xa;五、交通运输运力联动                &#xa;六、融合信息发布        &#xa;七、业务支撑开发            &#xa;八、数据治理开发服务" style="text;whiteSpace=wrap;" vertex="1" parent="1">
          <mxGeometry x="60" y="380" width="230" height="100" as="geometry" />
        </mxCell>
        <mxCell id="CTjedumYjyq66iIp7xSI-1" value="城市智能体，交通一体化" style="text;html=1;align=center;verticalAlign=middle;whiteSpace=wrap;rounded=0;" vertex="1" parent="1">
          <mxGeometry x="260" y="60" width="175" height="30" as="geometry" />
        </mxCell>
        <mxCell id="CTjedumYjyq66iIp7xSI-2" value="地图：需要确认" style="text;html=1;align=center;verticalAlign=middle;whiteSpace=wrap;rounded=0;" vertex="1" parent="1">
          <mxGeometry x="70" y="500" width="220" height="50" as="geometry" />
        </mxCell>
      </root>
    </mxGraphModel>
  </diagram>
  <diagram name="第 1 页 的副本" id="I1nT6MztTFiUGVc4d56Y">
    <mxGraphModel dx="1434" dy="738" grid="1" gridSize="10" guides="1" tooltips="1" connect="1" arrows="1" fold="1" page="1" pageScale="1" pageWidth="827" pageHeight="1169" math="0" shadow="0">
      <root>
        <mxCell id="rApLSeXM7jd4yq65ZYNG-0" />
        <mxCell id="rApLSeXM7jd4yq65ZYNG-1" parent="rApLSeXM7jd4yq65ZYNG-0" />
        <mxCell id="rApLSeXM7jd4yq65ZYNG-2" value="" style="rounded=0;whiteSpace=wrap;html=1;" vertex="1" parent="rApLSeXM7jd4yq65ZYNG-1">
          <mxGeometry x="790" y="180" width="170" height="210" as="geometry" />
        </mxCell>
        <mxCell id="rApLSeXM7jd4yq65ZYNG-3" value="" style="rounded=0;whiteSpace=wrap;html=1;" vertex="1" parent="rApLSeXM7jd4yq65ZYNG-1">
          <mxGeometry x="610" y="180" width="150" height="210" as="geometry" />
        </mxCell>
        <mxCell id="rApLSeXM7jd4yq65ZYNG-4" value="" style="rounded=0;whiteSpace=wrap;html=1;" vertex="1" parent="rApLSeXM7jd4yq65ZYNG-1">
          <mxGeometry x="60" y="150" width="430" height="310" as="geometry" />
        </mxCell>
        <mxCell id="rApLSeXM7jd4yq65ZYNG-5" value="&lt;b&gt;1、总体态势&lt;/b&gt;&lt;div&gt;&lt;b&gt;&lt;br&gt;&lt;/b&gt;&lt;div&gt;&lt;div style=&quot;&quot;&gt;交通总体态势展示&lt;/div&gt;&lt;div style=&quot;&quot;&gt;全域交通路况&lt;/div&gt;&lt;div style=&quot;&quot;&gt;交通运行态势&lt;/div&gt;&lt;div style=&quot;&quot;&gt;交通治理态势&lt;/div&gt;&lt;div style=&quot;&quot;&gt;交通服务态势&lt;/div&gt;&lt;/div&gt;&lt;/div&gt;" style="rounded=0;whiteSpace=wrap;html=1;verticalAlign=middle;" vertex="1" parent="rApLSeXM7jd4yq65ZYNG-1">
          <mxGeometry x="80" y="190" width="100" height="130" as="geometry" />
        </mxCell>
        <mxCell id="rApLSeXM7jd4yq65ZYNG-6" value="&lt;b&gt;2、路网态势专题&lt;/b&gt;&lt;div&gt;&lt;br&gt;&lt;/div&gt;&lt;div&gt;&lt;div&gt;实时拥堵态势&lt;/div&gt;&lt;div&gt;运行态势概览&lt;/div&gt;&lt;div&gt;拥堵趋势监控&lt;/div&gt;&lt;div&gt;拥堵排名监控&lt;/div&gt;&lt;div&gt;路网运行态势&lt;/div&gt;&lt;div&gt;出行态势监测&lt;/div&gt;&lt;/div&gt;" style="rounded=0;whiteSpace=wrap;html=1;verticalAlign=middle;" vertex="1" parent="rApLSeXM7jd4yq65ZYNG-1">
          <mxGeometry x="190" y="190" width="120" height="130" as="geometry" />
        </mxCell>
        <mxCell id="rApLSeXM7jd4yq65ZYNG-7" value="二、交通分析与决策" style="text;whiteSpace=wrap;fontStyle=1" vertex="1" parent="rApLSeXM7jd4yq65ZYNG-1">
          <mxGeometry x="624" y="180" width="140" height="40" as="geometry" />
        </mxCell>
        <mxCell id="rApLSeXM7jd4yq65ZYNG-8" value="&lt;span style=&quot;color: rgb(0, 0, 0); font-family: Helvetica; font-size: 12px; font-style: normal; font-variant-ligatures: normal; font-variant-caps: normal; letter-spacing: normal; orphans: 2; text-align: center; text-indent: 0px; text-transform: none; widows: 2; word-spacing: 0px; -webkit-text-stroke-width: 0px; white-space: normal; background-color: rgb(251, 251, 251); text-decoration-thickness: initial; text-decoration-style: initial; text-decoration-color: initial; float: none; display: inline !important;&quot;&gt;一、交通运行一体化平台&lt;/span&gt;" style="text;whiteSpace=wrap;html=1;fontStyle=1" vertex="1" parent="rApLSeXM7jd4yq65ZYNG-1">
          <mxGeometry x="75" y="150" width="140" height="40" as="geometry" />
        </mxCell>
        <mxCell id="rApLSeXM7jd4yq65ZYNG-9" value="&lt;span style=&quot;text-align: left;&quot;&gt;交通专题监测&lt;/span&gt;" style="rounded=0;whiteSpace=wrap;html=1;verticalAlign=middle;" vertex="1" parent="rApLSeXM7jd4yq65ZYNG-1">
          <mxGeometry x="80" y="370" width="100" height="20" as="geometry" />
        </mxCell>
        <mxCell id="rApLSeXM7jd4yq65ZYNG-10" value="流量规律研判" style="text;whiteSpace=wrap;strokeColor=default;verticalAlign=middle;" vertex="1" parent="rApLSeXM7jd4yq65ZYNG-1">
          <mxGeometry x="620" y="215" width="100" height="20" as="geometry" />
        </mxCell>
        <mxCell id="rApLSeXM7jd4yq65ZYNG-11" value="交通指数分析" style="text;whiteSpace=wrap;strokeColor=default;verticalAlign=middle;" vertex="1" parent="rApLSeXM7jd4yq65ZYNG-1">
          <mxGeometry x="620" y="249" width="100" height="20" as="geometry" />
        </mxCell>
        <mxCell id="rApLSeXM7jd4yq65ZYNG-12" value="拥堵规律研判" style="text;whiteSpace=wrap;strokeColor=default;verticalAlign=middle;" vertex="1" parent="rApLSeXM7jd4yq65ZYNG-1">
          <mxGeometry x="620" y="283" width="100" height="20" as="geometry" />
        </mxCell>
        <mxCell id="rApLSeXM7jd4yq65ZYNG-13" value="城市交通专题分析" style="text;whiteSpace=wrap;strokeColor=default;verticalAlign=middle;" vertex="1" parent="rApLSeXM7jd4yq65ZYNG-1">
          <mxGeometry x="620" y="316" width="100" height="20" as="geometry" />
        </mxCell>
        <mxCell id="rApLSeXM7jd4yq65ZYNG-14" value="综合交通专题报告" style="text;whiteSpace=wrap;strokeColor=default;verticalAlign=middle;" vertex="1" parent="rApLSeXM7jd4yq65ZYNG-1">
          <mxGeometry x="620" y="350" width="100" height="20" as="geometry" />
        </mxCell>
        <mxCell id="rApLSeXM7jd4yq65ZYNG-15" value="三、交通综合治理" style="text;whiteSpace=wrap;fontStyle=1" vertex="1" parent="rApLSeXM7jd4yq65ZYNG-1">
          <mxGeometry x="820" y="180" width="130" height="40" as="geometry" />
        </mxCell>
        <mxCell id="rApLSeXM7jd4yq65ZYNG-16" value="交通治理任务管理" style="text;whiteSpace=wrap;strokeColor=default;verticalAlign=middle;" vertex="1" parent="rApLSeXM7jd4yq65ZYNG-1">
          <mxGeometry x="810" y="230" width="100" height="20" as="geometry" />
        </mxCell>
        <mxCell id="rApLSeXM7jd4yq65ZYNG-17" value="治理过程监测" style="text;whiteSpace=wrap;strokeColor=default;verticalAlign=middle;" vertex="1" parent="rApLSeXM7jd4yq65ZYNG-1">
          <mxGeometry x="810" y="270" width="100" height="20" as="geometry" />
        </mxCell>
        <mxCell id="rApLSeXM7jd4yq65ZYNG-18" value="治理效果评估" style="text;whiteSpace=wrap;strokeColor=default;verticalAlign=middle;" vertex="1" parent="rApLSeXM7jd4yq65ZYNG-1">
          <mxGeometry x="810" y="310" width="100" height="20" as="geometry" />
        </mxCell>
        <mxCell id="rApLSeXM7jd4yq65ZYNG-19" value="交警交通基础设施管理" style="text;whiteSpace=wrap;strokeColor=default;verticalAlign=middle;" vertex="1" parent="rApLSeXM7jd4yq65ZYNG-1">
          <mxGeometry x="810" y="350" width="140" height="20" as="geometry" />
        </mxCell>
        <mxCell id="rApLSeXM7jd4yq65ZYNG-20" value="四、交通运输行业动态监测                &#xa;五、交通运输运力联动                &#xa;六、融合信息发布        &#xa;七、业务支撑开发            &#xa;八、数据治理开发服务" style="text;whiteSpace=wrap;" vertex="1" parent="rApLSeXM7jd4yq65ZYNG-1">
          <mxGeometry x="850" y="585" width="230" height="100" as="geometry" />
        </mxCell>
        <mxCell id="w5BymTvq71ujzeQspXsW-0" value="天壤平台&lt;div&gt;&lt;br&gt;&lt;/div&gt;&lt;div&gt;百度平台&lt;/div&gt;" style="text;html=1;align=center;verticalAlign=middle;resizable=0;points=[];autosize=1;strokeColor=default;fillColor=none;" vertex="1" parent="rApLSeXM7jd4yq65ZYNG-1">
          <mxGeometry x="630" y="590" width="70" height="60" as="geometry" />
        </mxCell>
        <mxCell id="w5BymTvq71ujzeQspXsW-1" value="3、交通专题监测&#xa;&#xa; 实时拥堵态势&#xa;运行态势概览&#xa;拥堵趋势监控&#xa;拥堵排名监控&#xa;路网运行态势&#xa;出行态势监测" style="text;whiteSpace=wrap;strokeColor=default;fontStyle=0;align=center;" vertex="1" parent="rApLSeXM7jd4yq65ZYNG-1">
          <mxGeometry x="320" y="196" width="110" height="134" as="geometry" />
        </mxCell>
        <mxCell id="w5BymTvq71ujzeQspXsW-3" value="地图：百度？高德？" style="text;html=1;align=center;verticalAlign=middle;resizable=0;points=[];autosize=1;strokeColor=default;fillColor=none;" vertex="1" parent="rApLSeXM7jd4yq65ZYNG-1">
          <mxGeometry x="590" y="675" width="130" height="30" as="geometry" />
        </mxCell>
      </root>
    </mxGraphModel>
  </diagram>
</mxfile>
